<!-- icon666.com - MILLIONS vector ICONS FREE --><svg id="圖層_1" viewBox="0 0 512 512" xmlns="http://www.w3.org/2000/svg"><path id="_x30_3" d="m267.388 6.85-197.113 46.46v407.071l197.113 46.459z" fill="#009fe8" style="fill: rgb(179, 0, 155);"></path><path id="_x30_2" d="m267.388 506.84 174.13-42.095v-83.136l-79.039 11.481v-19.465-343.783l-95.091-22.992z" fill="#fff000" style="fill: rgb(49, 31, 96);"></path><path id="_x30_1" d="m445.896 371.366c-2.771-2.772-6.121-3.112-6.508-3.152l-68.279-6.909v-328.335c0-4.806-3.292-8.982-7.967-10.11l-93.415-22.588c-2.254-.6-4.797-.021-4.817-.021l-193.644 45.643c-4.716 1.107-8.027 5.304-8.027 10.13v399.898c0 4.836 3.311 9.022 8.027 10.141l193.643 45.661c2.022.535 4.024.163 4.817-.04l171.065-41.354c4.674-1.117 7.966-5.304 7.966-10.1v-81.674c.001-.019.215-4.115-2.861-7.19zm-361.849-307.101 172.835-40.745v464.916l-172.835-40.745zm193.644 424.089v-464.752l72.609 17.557v348.677c0 3.008 1.355 5.854 3.597 7.844 2.007 1.781 4.966 2.822 8.313 2.439l65.739-9.553v61.452z" fill="#000000" style="fill: rgb(255, 255, 255);"></path></svg>